<svg width="23" height="24" viewBox="0 0 23 24" fill="none" xmlns="http://www.w3.org/2000/svg">
<path d="M11.3522 0.528906C5.28401 0.528906 0.376563 5.71459 0.376563 12.0532C0.376563 18.3918 5.28401 23.5775 11.3522 23.5775C17.4204 23.5775 22.3278 18.3918 22.3278 12.0532C22.3278 5.71459 17.4204 0.528906 11.3522 0.528906ZM11.3522 22.1332C6.09373 22.1332 1.7856 17.6277 1.7856 12.0532C1.7856 6.47871 6.09373 1.97321 11.3522 1.97321C16.6107 1.97321 20.9188 6.47871 20.9188 12.0532C20.9188 17.6277 16.6107 22.1332 11.3522 22.1332Z" fill="white" stroke="white" stroke-width="0.7"/>
<path d="M13.6703 5.78107H11.9023C9.65065 5.75738 9.36306 7.22298 9.36306 8.80915V9.96253H8.36908C8.32415 9.95622 8.27845 9.96089 8.23551 9.97617C8.19258 9.99145 8.15357 10.0169 8.12152 10.0506C8.08948 10.0843 8.06524 10.1254 8.05072 10.1705C8.03619 10.2157 8.03175 10.2637 8.03775 10.311V12.4017C8.03175 12.449 8.03619 12.497 8.05072 12.5422C8.06524 12.5873 8.08948 12.6284 8.12152 12.6621C8.15357 12.6958 8.19258 12.7213 8.23551 12.7365C8.27845 12.7518 8.32415 12.7565 8.36908 12.7502H9.36306V17.977C9.35754 18.0243 9.36237 18.0724 9.3772 18.1174C9.39203 18.1625 9.41646 18.2034 9.44862 18.237C9.48078 18.2707 9.51982 18.2961 9.56276 18.3114C9.6057 18.3267 9.6514 18.3316 9.69637 18.3255H11.7208C11.9163 18.3492 12.0746 18.1826 12.0123 17.977L12.0137 12.7502H13.6703C13.7152 12.7565 13.7609 12.7518 13.8039 12.7365C13.8468 12.7213 13.8858 12.6958 13.9179 12.6621C13.9499 12.6284 13.9741 12.5873 13.9887 12.5422C14.0032 12.497 14.0076 12.449 14.0016 12.4017V10.311C14.0076 10.2637 14.0032 10.2157 13.9887 10.1705C13.9741 10.1254 13.9499 10.0843 13.9179 10.0506C13.8858 10.0169 13.8468 9.99145 13.8039 9.97617C13.7609 9.96089 13.7152 9.95622 13.6703 9.96253H12.0117L12.0137 8.91717C12.0779 8.47184 12.0779 8.54432 12.4709 8.56871H13.6564C13.7485 8.54711 13.8466 8.55896 13.9155 8.48857C13.9844 8.41818 14.0242 8.32201 14.001 8.22026V6.12953C14.0071 6.08232 14.0027 6.03426 13.9883 5.9891C13.9739 5.94394 13.9497 5.90289 13.9177 5.86917C13.8857 5.83544 13.8467 5.80995 13.8038 5.79467C13.7609 5.77938 13.7152 5.77473 13.6703 5.78107Z" fill="white"/>
</svg>
