<svg width="23" height="25" viewBox="0 0 23 25" fill="none" xmlns="http://www.w3.org/2000/svg">
<path d="M22.1368 7.7411C22.0848 6.50093 21.8941 5.64832 21.6209 4.90952C21.339 4.1253 20.9054 3.4232 20.3373 2.83953C19.7822 2.24679 19.1101 1.7862 18.3729 1.49445C17.6662 1.20716 16.8596 1.00661 15.6801 0.951931C14.4919 0.892621 14.1147 0.878906 11.1009 0.878906C8.0872 0.878906 7.70998 0.892621 6.52614 0.9473C5.3467 1.00198 4.53584 1.20271 3.83339 1.48982C3.08741 1.7862 2.41969 2.24216 1.86461 2.83953C1.30089 3.4232 0.863026 4.12994 0.585401 4.90507C0.31218 5.64832 0.12145 6.4963 0.0694486 7.73647C0.0130428 8.98591 0 9.38256 0 12.5515C0 15.7204 0.0130428 16.1171 0.0650445 17.3619C0.117046 18.602 0.307945 19.4546 0.581166 20.1934C0.863026 20.9777 1.30089 21.6798 1.86461 22.2634C2.41969 22.8562 3.09182 23.3168 3.82899 23.6085C4.53584 23.8958 5.34229 24.0963 6.5219 24.151C7.70558 24.2059 8.08297 24.2194 11.0967 24.2194C14.1104 24.2194 14.4877 24.2059 15.6715 24.151C16.8509 24.0963 17.6618 23.8958 18.3642 23.6085C19.856 23.002 21.0355 21.7619 21.6122 20.1934C21.8853 19.4502 22.0762 18.602 22.1282 17.3619C22.1802 16.1171 22.1932 15.7204 22.1932 12.5515C22.1932 9.38256 22.1888 8.98591 22.1368 7.7411ZM20.1379 17.2707C20.0901 18.4106 19.908 19.0261 19.7563 19.4365C19.3833 20.4533 18.6158 21.2603 17.6488 21.6525C17.2585 21.8121 16.6688 22.0036 15.589 22.0536C14.4182 22.1085 14.0671 22.122 11.1053 22.122C8.14361 22.122 7.78807 22.1085 6.6215 22.0536C5.53743 22.0036 4.95202 21.8121 4.56176 21.6525C4.08053 21.4655 3.64249 21.1691 3.28695 20.7816C2.91837 20.4031 2.63651 19.9471 2.45865 19.4411C2.30688 19.0307 2.12479 18.4106 2.07719 17.2753C2.02502 16.0442 2.01215 15.6748 2.01215 12.5606C2.01215 9.44632 2.02502 9.07247 2.07719 7.84601C2.12479 6.70611 2.30688 6.09056 2.45865 5.6802C2.63651 5.17401 2.91837 4.7136 3.29136 4.33957C3.65113 3.952 4.08476 3.65563 4.56616 3.46879C4.95643 3.30921 5.54623 3.11774 6.62591 3.06751C7.79671 3.01283 8.14802 2.99912 11.1096 2.99912C14.0757 2.99912 14.4268 3.01283 15.5934 3.06751C16.6775 3.11774 17.2629 3.30921 17.6532 3.46879C18.1344 3.65563 18.5724 3.952 18.928 4.33957C19.2965 4.71805 19.5784 5.17401 19.7563 5.6802C19.908 6.09056 20.0901 6.71056 20.1379 7.84601C20.1899 9.0771 20.2029 9.44632 20.2029 12.5606C20.2029 15.6748 20.1899 16.0396 20.1379 17.2707Z" fill="white"/>
<path d="M11.1158 6.54395C7.97448 6.54395 5.42578 9.22424 5.42578 12.5281C5.42578 15.832 7.97448 18.5123 11.1158 18.5123C14.2572 18.5123 16.8058 15.832 16.8058 12.5281C16.8058 9.22424 14.2572 6.54395 11.1158 6.54395ZM11.1158 16.4099C9.07786 16.4099 7.42482 14.6716 7.42482 12.5281C7.42482 10.3847 9.07786 8.64634 11.1158 8.64634C13.1539 8.64634 14.8067 10.3847 14.8067 12.5281C14.8067 14.6716 13.1539 16.4099 11.1158 16.4099Z" fill="white"/>
<path d="M18.0213 6.02419C18.0213 6.4857 17.6545 6.8599 17.202 6.8599C16.7496 6.8599 16.3828 6.4857 16.3828 6.02419C16.3828 5.56258 16.7496 5.18848 17.202 5.18848C17.6545 5.18848 18.0213 5.56258 18.0213 6.02419Z" fill="white"/>
</svg>
