<svg width="23" height="25" viewBox="0 0 23 25" fill="none" xmlns="http://www.w3.org/2000/svg">
<path fill-rule="evenodd" clip-rule="evenodd" d="M19.7504 4.27086C17.6825 2.08468 14.9322 0.880188 12.0023 0.878906C5.96491 0.878906 1.05134 6.06713 1.04891 12.4439C1.0481 14.4823 1.55241 16.4722 2.51097 18.2262L0.957031 24.2194L6.7636 22.6111C8.36355 23.5326 10.1648 24.0183 11.9979 24.0188H12.0025C18.0392 24.0188 22.9533 18.8302 22.9556 12.4531C22.9568 9.36264 21.8185 6.4569 19.7504 4.27086ZM12.0023 22.0656H11.9985C10.365 22.0649 8.76289 21.6013 7.36491 20.7256L7.03262 20.5172L3.58691 21.4717L4.50662 17.9243L4.29009 17.5606C3.37874 16.03 2.8975 14.261 2.89831 12.4446C2.9002 7.1444 6.98432 2.83231 12.006 2.83231C14.4377 2.83316 16.7235 3.83436 18.4423 5.65143C20.1611 7.4685 21.1071 9.88375 21.1063 12.4524C21.1042 17.7531 17.0203 22.0656 12.0023 22.0656ZM16.996 14.8658C16.7224 14.7211 15.3768 14.0222 15.1259 13.9256C14.8752 13.8292 14.6925 13.7811 14.5102 14.0703C14.3277 14.3595 13.8033 15.0106 13.6435 15.2033C13.4838 15.3962 13.3243 15.4204 13.0506 15.2757C12.7769 15.1311 11.8951 14.8258 10.8496 13.8413C10.0361 13.075 9.48684 12.1286 9.32711 11.8394C9.16764 11.55 9.32576 11.4086 9.44718 11.2497C9.74345 10.8612 10.0401 10.4539 10.1313 10.2611C10.2227 10.0682 10.1769 9.89942 10.1084 9.75483C10.0401 9.61023 9.49278 8.18778 9.26478 7.60896C9.04244 7.04568 8.81699 7.12175 8.64889 7.11292C8.48942 7.10452 8.30688 7.10281 8.12435 7.10281C7.94194 7.10281 7.6454 7.17503 7.39446 7.46451C7.14365 7.75384 6.4367 8.45289 6.4367 9.87535C6.4367 11.2978 7.4174 12.672 7.5542 12.8649C7.691 13.0577 9.48415 15.9767 12.2295 17.2284C12.8825 17.5264 13.3922 17.7041 13.7898 17.8372C14.4455 18.0572 15.0419 18.0261 15.5136 17.9518C16.0395 17.8687 17.1327 17.2526 17.361 16.5776C17.589 15.9025 17.589 15.324 17.5204 15.2033C17.4522 15.0828 17.2696 15.0106 16.996 14.8658Z" fill="white"/>
</svg>
