<?xml version="1.0" encoding="utf-8"?><svg viewBox="0 0 79 79" xmlns="http://www.w3.org/2000/svg" xmlns:xlink="http://www.w3.org/1999/xlink"><style>:root>svg{display:none}:root>svg:target{display:block}</style><svg viewBox="0 0 16 35" id="arrow-top" xmlns="http://www.w3.org/2000/svg"><path d="M8.707.293a1 1 0 00-1.414 0L.929 6.657A1 1 0 002.343 8.07L8 2.414l5.657 5.657a1 1 0 101.414-1.414L8.707.293zM9 35V1H7v34h2z"/></svg><svg viewBox="0 0 79 79" id="btn-next" xmlns="http://www.w3.org/2000/svg"><circle cx="39.5" cy="39.5" r="39"/><path d="M60.156 40.223a.5.5 0 000-.707l-3.182-3.182a.5.5 0 10-.707.707l2.829 2.828-2.829 2.829a.5.5 0 10.707.707l3.182-3.182zm-40.96.146h40.607v-1H19.195v1z"/></svg><svg viewBox="0 0 79 79" id="btn-prev" xmlns="http://www.w3.org/2000/svg"><g opacity=".6"><circle r="39" transform="matrix(-1 0 0 1 39.5 39.5)"/><path d="M18.844 40.223a.5.5 0 010-.707l3.182-3.182a.5.5 0 11.707.707l-2.829 2.828 2.829 2.829a.5.5 0 11-.707.707l-3.182-3.182zm40.96.146H19.198v-1h40.608v1z"/></g></svg><svg viewBox="0 0 9 7" id="checkmark" xmlns="http://www.w3.org/2000/svg"><path d="M1.867 3.96l2.126 2.006m-.005 0l4.01-4.011"/></svg><svg viewBox="0 0 23 24" id="facebook" xmlns="http://www.w3.org/2000/svg"><path d="M11.352.529C5.284.529.377 5.715.377 12.053c0 6.339 4.907 11.524 10.975 11.524s10.976-5.185 10.976-11.524C22.328 5.715 17.42.53 11.352.53zm0 21.604c-5.258 0-9.566-4.505-9.566-10.08 0-5.574 4.308-10.08 9.566-10.08 5.259 0 9.567 4.506 9.567 10.08 0 5.575-4.308 10.08-9.567 10.08z"/><path d="M13.67 5.781h-1.768C9.651 5.757 9.363 7.223 9.363 8.81v1.154H8.37a.281.281 0 00-.247.088.313.313 0 00-.084.26v2.09a.325.325 0 00.084.261.292.292 0 00.247.088h.994v5.227a.328.328 0 00.086.26.294.294 0 00.247.089h2.025c.195.023.354-.143.291-.349l.002-5.227h1.656a.281.281 0 00.248-.088.315.315 0 00.084-.26V10.31a.326.326 0 00-.084-.26.281.281 0 00-.248-.088h-1.658l.002-1.046c.064-.445.064-.373.457-.348h1.185c.092-.022.19-.01.26-.08A.29.29 0 0014 8.22V6.13a.326.326 0 00-.083-.26.28.28 0 00-.247-.088z"/></svg><svg viewBox="0 0 23 25" id="inst" xmlns="http://www.w3.org/2000/svg"><path d="M22.137 7.741c-.052-1.24-.243-2.093-.516-2.831a5.733 5.733 0 00-1.284-2.07 5.445 5.445 0 00-1.964-1.346c-.707-.287-1.513-.487-2.693-.542-1.188-.06-1.565-.073-4.58-.073-3.013 0-3.39.014-4.574.068-1.18.055-1.99.256-2.693.543a5.399 5.399 0 00-1.968 1.35 5.784 5.784 0 00-1.28 2.065C.312 5.648.121 6.496.07 7.736.013 8.986 0 9.383 0 12.552c0 3.168.013 3.565.065 4.81.052 1.24.243 2.093.516 2.831a5.79 5.79 0 001.284 2.07 5.444 5.444 0 001.964 1.345c.707.288 1.513.488 2.693.543 1.184.055 1.561.068 4.575.068 3.013 0 3.39-.013 4.575-.068 1.179-.055 1.99-.255 2.692-.543 1.492-.606 2.671-1.846 3.248-3.415.273-.743.464-1.591.516-2.831.052-1.245.065-1.642.065-4.81 0-3.17-.004-3.566-.056-4.81zm-2 9.53c-.047 1.14-.229 1.755-.38 2.165-.374 1.017-1.141 1.824-2.108 2.216-.39.16-.98.352-2.06.402-1.17.055-1.522.068-4.484.068-2.961 0-3.317-.014-4.484-.068-1.084-.05-1.669-.242-2.06-.401a3.404 3.404 0 01-1.274-.871 3.653 3.653 0 01-.828-1.34c-.152-.411-.334-1.031-.382-2.167-.052-1.23-.065-1.6-.065-4.714 0-3.115.013-3.489.065-4.715.048-1.14.23-1.755.382-2.166a3.57 3.57 0 01.832-1.34c.36-.388.794-.684 1.275-.871.39-.16.98-.351 2.06-.401 1.17-.055 1.522-.069 4.484-.069 2.966 0 3.317.014 4.483.069 1.084.05 1.67.241 2.06.4.481.188.92.484 1.275.872.369.378.65.834.828 1.34.152.41.334 1.03.382 2.166.052 1.231.065 1.6.065 4.715 0 3.114-.013 3.479-.065 4.71z"/><path d="M11.116 6.544c-3.142 0-5.69 2.68-5.69 5.984s2.548 5.984 5.69 5.984c3.141 0 5.69-2.68 5.69-5.984s-2.549-5.984-5.69-5.984zm0 9.866c-2.038 0-3.691-1.738-3.691-3.882 0-2.143 1.653-3.882 3.69-3.882 2.039 0 3.692 1.739 3.692 3.882 0 2.144-1.653 3.882-3.691 3.882zm6.905-10.386a.828.828 0 01-.819.836.828.828 0 01-.82-.836.83.83 0 01.82-.836.83.83 0 01.82.836z"/></svg><svg viewBox="0 0 10 8" id="marker" xmlns="http://www.w3.org/2000/svg"><path d="M1.095 4.016l3.111 2.92L9.041.746"/></svg><svg viewBox="0 0 10 8" id="marker-white" xmlns="http://www.w3.org/2000/svg"><path d="M1.095 4.016l3.111 2.92L9.041.746"/></svg><svg viewBox="0 0 33 37" id="play" xmlns="http://www.w3.org/2000/svg"><path d="M32.315 18.212a.455.455 0 010 .788L11.998 30.73l-9.445 5.453A1.31 1.31 0 01.59 35.049V2.163a1.31 1.31 0 011.964-1.134l29.762 17.183z"/></svg><svg viewBox="0 0 23 25" id="whats" xmlns="http://www.w3.org/2000/svg"><path fill-rule="evenodd" clip-rule="evenodd" d="M19.75 4.27C17.683 2.086 14.932.88 12.002.88 5.965.879 1.052 6.067 1.05 12.444c0 2.038.503 4.028 1.462 5.782L.957 24.22l5.807-1.608c1.6.922 3.4 1.407 5.234 1.408h.005c6.036 0 10.95-5.189 10.953-11.566 0-3.09-1.137-5.996-3.206-8.182zm-7.748 17.796h-.004a8.73 8.73 0 01-4.633-1.34l-.332-.209-3.446.955.92-3.548-.217-.363a9.989 9.989 0 01-1.392-5.116c.002-5.3 4.086-9.613 9.108-9.613 2.432.001 4.718 1.002 6.436 2.82 1.72 1.816 2.665 4.232 2.664 6.8-.002 5.301-4.086 9.614-9.104 9.614zm4.994-7.2c-.274-.145-1.62-.844-1.87-.94-.25-.097-.433-.145-.616.144-.182.29-.707.94-.867 1.133-.16.193-.319.217-.592.073-.274-.145-1.156-.45-2.201-1.435-.814-.766-1.363-1.712-1.523-2.002-.16-.289-.001-.43.12-.59.296-.388.593-.795.684-.988.092-.193.046-.362-.023-.506-.068-.145-.615-1.567-.843-2.146-.223-.563-.448-.487-.616-.496-.16-.008-.342-.01-.525-.01a.982.982 0 00-.73.362c-.25.289-.957.988-.957 2.41 0 1.423.98 2.797 1.117 2.99.137.193 1.93 3.112 4.675 4.363a15.54 15.54 0 001.56.61c.656.22 1.253.188 1.725.114.526-.083 1.619-.7 1.847-1.374.228-.675.228-1.254.16-1.375-.069-.12-.251-.192-.525-.337z"/></svg></svg>